<svg width="186" height="38" viewBox="0 0 186 38" fill="none" xmlns="http://www.w3.org/2000/svg">
<path fill-rule="evenodd" clip-rule="evenodd" d="M66.7692 6.68119C63.672 3.61779 59.4623 1.72325 54.8771 1.72325C50.2927 1.72325 46.0839 3.6187 42.985 6.68119C39.8129 9.81771 37.8507 14.1592 37.8507 18.961C37.8507 23.7628 39.8137 28.1042 42.9886 31.2408C46.0857 34.3042 50.2936 36.1987 54.8806 36.1987C59.4642 36.1987 63.6729 34.3032 66.7728 31.2408C69.9458 28.1033 71.9089 23.7619 71.9089 18.961C71.9089 14.1592 69.9458 9.81771 66.771 6.68119H66.7692ZM54.8771 1.17989C60.0746 1.17989 64.7221 3.20531 68.0333 6.47992C71.2705 9.67871 73.2733 14.0924 73.2733 18.961C73.2733 23.8296 71.2686 28.2432 68.0324 31.4438C64.7203 34.7166 60.0727 36.7421 54.8762 36.7421C49.6787 36.7421 45.0311 34.7166 41.7199 31.4438C38.4828 28.2432 36.4809 23.8296 36.4809 18.961C36.4809 14.0924 38.4828 9.67871 41.7199 6.47992C45.0329 3.20531 49.6796 1.17989 54.8771 1.17989ZM54.8771 17.5439C55.6653 17.5439 56.3038 18.1784 56.3038 18.961C56.3038 19.7435 55.6653 20.378 54.8771 20.378C54.0915 20.378 53.4531 19.7435 53.4531 18.961C53.4531 18.1784 54.0897 17.5439 54.8771 17.5439ZM158.194 26.2539H177.47L167.833 2.78831L158.193 26.2539H158.194ZM179.201 36.0254H181.481L177.692 26.7973H157.969L154.177 36.0254H157.141V36.5688H150.342V36.0254H153.53L157.32 26.7973H154.984V26.2539H157.544L168.14 0.461426L182.747 36.0254H186V36.5688H179.201V36.0254ZM120.113 14.7278H122.482C123.444 14.7278 124.55 14.7278 125.498 14.1772C126.008 13.8794 126.494 13.4353 126.939 12.9073C127.443 12.308 127.886 11.6003 128.247 10.8746C128.598 10.1769 128.862 9.47562 129.079 8.79326C129.295 8.1091 129.469 7.42583 129.626 6.78319L129.677 6.57379C129.971 5.36792 130.227 4.3173 130.791 3.50497C131.082 3.08526 131.454 2.73055 131.869 2.43991C132.344 2.10866 132.882 1.85864 133.424 1.69076C133.973 1.52197 134.518 1.43803 135.061 1.39561H135.063C135.579 1.3559 136.058 1.3559 136.536 1.3559V1.89926C136.118 1.89926 135.7 1.89926 135.32 1.92814C134.964 1.95522 134.607 2.01118 134.253 2.12039C133.847 2.24676 133.434 2.44172 133.051 2.70708C132.69 2.96251 132.36 3.27571 132.1 3.65029C131.568 4.41749 131.314 5.44645 131.029 6.62614L130.977 6.83554C130.821 7.47277 130.648 8.15333 130.424 8.86096C130.198 9.5704 129.929 10.2889 129.584 10.9821C129.214 11.724 128.754 12.4533 128.226 13.0824C127.741 13.6573 127.2 14.1474 126.618 14.485C126.46 14.5753 126.299 14.6565 126.138 14.7287H127.507C129.14 14.7287 131.016 14.7287 132.682 15.9833C133.404 16.5294 134.077 17.3246 134.683 18.2615C135.351 19.2949 135.936 20.4963 136.404 21.7157C136.846 22.8674 137.189 24.0534 137.473 25.2205C137.761 26.4029 137.981 27.5239 138.18 28.5736L138.245 28.922C138.615 30.8915 138.937 32.6073 139.626 33.8989C139.947 34.4964 140.348 35.0064 140.767 35.4288C141.284 35.9487 141.825 36.3278 142.27 36.5688C142.618 36.7583 142.882 36.8468 143.101 36.8874C143.275 36.9181 143.479 36.9181 143.681 36.9181V37.4614C143.331 37.4614 142.981 37.4614 142.53 37.3784C142.12 37.3035 141.677 37.1618 141.17 36.8883C140.665 36.6157 140.06 36.1933 139.498 35.6283C139.055 35.1833 138.631 34.6444 138.293 34.0108C137.582 32.684 137.257 30.951 136.885 28.9626L136.818 28.6142C136.616 27.5401 136.394 26.3992 136.118 25.271C135.841 24.1292 135.501 22.9577 135.055 21.7978C134.59 20.5829 134.016 19.3987 133.367 18.395C132.789 17.5015 132.151 16.7469 131.478 16.2379C130.196 15.2721 128.76 15.2721 127.509 15.2721H123.614V15.254C123.226 15.2721 122.848 15.2721 122.482 15.2721H120.113V36.0281H122.831V36.5715H116.03V36.0281H118.748V1.89835H116.03V1.35319H122.83V1.89655H120.113V14.7278ZM103.609 36.0254H105.893L92.2402 2.78831L78.5873 36.0254H81.5535V36.5688H74.7542V36.0254H77.9417L92.5526 0.461426L107.16 36.0254H110.412V36.5688H103.613V36.0254H103.609ZM29.5389 1.89655V36.0254H32.2568V36.5688H25.4574V36.0254H28.1708V1.89655H4.08323V36.2971H2.71794V1.89655H0V1.35319H32.2559V1.89655H29.5389Z" fill="#BDBDBD"/>
</svg>
